<svg width="210" height="265" viewBox="0 0 210 265" fill="none" xmlns="http://www.w3.org/2000/svg">
<path fill-rule="evenodd" clip-rule="evenodd" d="M13.545 1.78309C15.228 6.01509 19.055 25.4151 20.069 34.8491C21.061 44.0751 20.987 45.6601 19.37 49.8491C18.176 52.9451 17.582 57.0761 17.619 62.0331C17.684 70.8511 19.883 76.6141 25.591 82.9321C27.655 85.2171 29.168 87.2141 28.953 87.3711C28.739 87.5281 26.213 89.3451 23.341 91.4091C15.774 96.8471 10.409 103.413 6.08899 112.524C1.10499 123.033 0.00100051 128.077 5.09457e-07 140.348C-0.000999491 151.618 1.46998 158.564 5.94998 168.445C16.732 192.224 45.959 222.904 86.563 253.065C106.423 267.818 103.425 266.909 112.128 260.813C140.004 241.288 168.914 215.506 186.224 194.736C203.917 173.506 211.721 152.095 208.971 132.327C206.188 112.318 197.858 99.3081 180.173 87.3501C179.958 87.2051 181.471 85.2171 183.535 82.9321C191.538 74.0741 193.933 62.4281 190.088 51.0741C188.045 45.0401 187.976 43.9521 189.037 34.5741C190.108 25.1181 193.974 5.83209 195.643 1.62109C196.366 -0.201911 195.987 -0.260911 187.482 0.344089C149.413 3.05009 119.939 19.8321 107.397 45.9421L104.23 52.5331L103.096 49.5331C99.035 38.7951 91.233 28.8241 80.595 20.7791C71.852 14.1661 58.059 7.24009 48.522 4.67309C40.715 2.57209 23.924 0.0460883 17.706 0.0390883C13.481 0.0340883 12.94 0.261092 13.545 1.78309ZM93.563 6.60109C91.913 6.82609 87.515 7.50809 83.789 8.11709L77.016 9.22309L83.289 13.9951C89.883 19.0111 99.465 28.6301 102.496 33.2781L104.287 36.0241L107.346 31.7781C111.554 25.9391 121.032 16.7801 127.091 12.7001L132.13 9.30609L126.347 8.17209C120.165 6.95909 98.539 5.92309 93.563 6.60109ZM56.159 31.2831C55.689 32.5201 55.138 34.3851 54.934 35.4261C54.208 39.1321 51.392 39.7471 46.911 37.1791L42.805 34.8251L39.211 38.4191C35.735 41.8941 35.661 42.1201 36.966 45.2731C39.558 51.5381 39.049 53.2651 34.063 55.1231L29.563 56.8011V62.1351V67.4691L34.063 69.0481C39.054 70.7991 39.564 72.5131 36.966 78.7931C35.658 81.9531 35.731 82.1671 39.308 85.7451L43 89.4371L47.019 87.1781C51.958 84.4021 54.025 85.2521 55.544 90.6861C56.615 94.5201 56.638 94.5341 62.331 94.8331L68.044 95.1321L69.261 90.5841C70.764 84.9641 72.73 84.2091 77.997 87.2291L82.015 89.5331L85.749 85.8061L89.484 82.0791L87.297 77.5771C86.094 75.1011 85.348 72.4551 85.639 71.6971C85.929 70.9391 88.056 69.7541 90.365 69.0651C95.314 67.5881 96.032 66.6961 96.032 62.0331C96.032 57.4891 95.404 56.7201 90.365 55.0981C85.175 53.4281 84.45 51.7361 87.043 47.3421C89.742 42.7681 89.626 41.9711 85.707 38.1721L82.35 34.9191L77.813 37.1241C75.317 38.3361 72.616 39.0751 71.809 38.7661C71.003 38.4561 69.824 36.1401 69.189 33.6181L68.034 29.0331H62.524C57.729 29.0331 56.902 29.3251 56.159 31.2831ZM139.865 33.4821C138.373 39.0601 136.497 39.8051 131.001 37.0011L126.825 34.8711L123.444 38.1481C119.515 41.9561 119.344 43.1331 122.075 47.5521C124.728 51.8441 123.776 53.8501 118.407 55.2861C113.604 56.5711 112.666 58.1711 113.239 64.1011C113.532 67.1251 114.014 67.5851 118.268 68.9011C120.856 69.7011 123.208 70.9681 123.495 71.7161C123.782 72.4631 123.032 75.1011 121.829 77.5771L119.642 82.0791L123.255 85.6921L126.869 89.3051L131.327 87.1471C133.779 85.9601 136.433 85.2381 137.225 85.5421C138.017 85.8451 139.208 88.1281 139.873 90.6131L141.082 95.1321L146.789 94.8331C152.489 94.5331 152.497 94.5281 153.384 90.7621C154.647 85.3971 157.123 84.3771 162.097 87.1721L166.079 89.4101L169.571 86.0251C173.578 82.1421 173.802 80.7571 171.131 76.3761C168.75 72.4731 169.785 70.6811 175.563 68.7021C179.55 67.3361 179.563 67.3141 179.563 62.0661V56.8011L175.063 55.1231C170.077 53.2651 169.568 51.5381 172.16 45.2731C173.465 42.1181 173.392 41.8951 169.895 38.3981L166.28 34.7831L162.12 37.1211C157.056 39.9671 155.07 39.1181 153.479 33.4251C152.394 29.5441 152.375 29.5321 146.736 29.2331L141.082 28.9341L139.865 33.4821ZM55.063 47.8231C40.296 55.8951 45.584 78.0331 62.279 78.0331C74.439 78.0331 81.812 65.7361 76.44 54.4141C72.945 47.0491 62.417 43.8031 55.063 47.8231ZM138.667 48.2411C133.738 51.1411 131.063 56.0921 131.063 62.3171C131.063 71.5741 137.35 78.0331 146.361 78.0331C158.928 78.0331 166.653 65.9901 161.086 55.0771C156.858 46.7911 146.501 43.6331 138.667 48.2411ZM102.713 82.3281C101.85 84.3941 98.934 88.2361 96.234 90.8671L91.324 95.6491L95.217 98.9171C97.358 100.714 100.355 104.366 101.878 107.033L104.647 111.881L107.044 107.362C108.363 104.877 111.313 101.215 113.601 99.2251L117.759 95.6081L113.026 90.9971C110.422 88.4611 107.39 84.6271 106.287 82.4781L104.283 78.5711L102.713 82.3281Z" fill="#7657E8"/>
</svg>