<svg width="53" height="48" viewBox="0 0 53 48" fill="none" xmlns="http://www.w3.org/2000/svg">
<path d="M25.3262 33.2696C26.7881 32.3027 28.2312 32.1236 29.8281 32.5626C34.5831 33.8696 42.7294 37.5296 48.7754 42.4376C48.9857 42.6078 49.7094 43.1936 50.1553 43.8204C50.8421 44.7852 50.4861 45.6431 49.7314 46.0782C49.4647 46.233 48.958 46.3432 48.8662 46.3614C43.6282 47.3494 31.1507 47.6096 25.9707 47.6466C19.4795 47.6915 3.51679 47.1939 1.59082 46.8399C1.38691 46.8109 1.21327 46.6456 1.19922 46.4307C1.18322 46.1978 1.21607 45.989 1.96582 45.7921C6.00582 44.7341 14.3934 41.7324 23.9414 34.3184C24.4373 33.9276 24.8833 33.5765 25.3262 33.2696Z" fill="#00AEEF"/>
<path d="M23.4121 0.178786C23.5391 0.0160009 23.768 -0.0518667 23.9619 0.04402C24.1709 0.14702 24.3369 0.279395 24.1309 1.0284C23.0279 5.05651 21.4331 13.8203 23.0801 25.795C23.1701 26.4198 23.2519 26.9818 23.2959 27.5186C23.4019 29.2686 22.8362 30.6085 21.6572 31.7725C18.1482 35.2365 10.9038 40.4613 3.63184 43.2423C3.37858 43.3394 2.5099 43.6742 1.74414 43.7462C0.565141 43.8582 0 43.1211 0 42.2501C8.99821e-06 41.9412 0.157353 41.4479 0.188477 41.3595C1.95148 36.3295 7.96444 25.3927 10.5234 20.8887C13.7296 15.2455 22.1421 1.66975 23.4121 0.178786Z" fill="#00AEEF"/>
<path d="M26.0137 1.85847C26.5066 0.780702 27.4267 0.660129 28.1816 1.0948C28.4486 1.2498 28.7984 1.63318 28.8594 1.70418C32.3334 5.74627 38.798 16.4218 41.4189 20.8897C44.704 26.4879 52.2541 40.5614 52.9111 42.4063C52.9871 42.5983 52.9319 42.8303 52.752 42.9503C52.558 43.0802 52.3611 43.1572 51.8154 42.6055C48.8794 39.6365 42.0866 33.8726 30.8916 29.3106C30.3057 29.0777 29.7779 28.8658 29.291 28.6358C27.7221 27.8528 26.8457 26.6929 26.4277 25.0899C25.1818 20.3188 24.2789 11.434 25.5059 3.74519C25.5489 3.47819 25.6938 2.55741 26.0137 1.85847Z" fill="#00AEEF"/>
</svg>